<?xml version="1.0" standalone="no"?>
<svg viewBox="0 0 200 200" xmlns="http://www.w3.org/2000/svg">
  <path fill="#407BFF" d="M42.8,-74.4C55.5,-66.9,65.7,-55.4,74.7,-42.3C83.7,-29.2,91.4,-14.6,92.6,0.7C93.8,16,88.3,31.9,79.9,46C71.6,60.1,60.2,72.4,46.4,80.7C32.6,88.9,16.3,93.2,0.7,92C-14.9,90.7,-29.7,84,-43.8,75.9C-57.9,67.7,-71.1,58.2,-80.3,45.4C-89.6,32.5,-94.7,16.2,-94.3,0.2C-93.9,-15.8,-88.1,-31.6,-79.1,-45C-70.2,-58.3,-58.2,-69.1,-44.5,-76C-30.8,-82.9,-15.4,-85.8,-0.2,-85.6C15.1,-85.3,30.2,-81.9,42.8,-74.4Z" transform="translate(100 100)" />
</svg>
